<?xml version="1.0" encoding="UTF-8"?>
<svg id="_レイヤー_1" data-name="レイヤー 1" xmlns="http://www.w3.org/2000/svg" viewBox="40 450 920 90">
  <g>
    <path d="M161.92,469.87v-10.33h13.61v10.33h-13.61ZM161.92,520.22v-45.51h13.61v45.51h-13.61Z" style="fill: #231815; stroke-width: 0px;"/>
    <path d="M214.65,520.22v-4.92h-.16c-1.97,4.02-7.38,6.48-13.37,6.48-13.45,0-22.8-10.58-22.8-24.35s9.76-24.27,22.8-24.27c5.58,0,10.74,2.21,13.37,6.4h.16v-4.84h13.61v45.51h-13.61ZM214.65,497.42c0-6.4-5.17-11.56-11.56-11.56s-11.15,5.17-11.15,11.73,5,11.48,11.32,11.48,11.4-5.08,11.4-11.64Z" style="fill: #231815; stroke-width: 0px;"/>
    <path d="M254.25,487.5c-.08-2.62-1.97-3.44-4.18-3.44s-3.94,1.31-3.94,3.03c0,2.46,2.21,3.69,8.53,5.33,10.82,2.87,14.35,7.22,14.35,13.86,0,9.51-8.2,15.5-18.53,15.5s-17.55-5.82-18.53-15.09h13.53c.41,2.87,2.46,4.18,5.17,4.18,2.38,0,4.76-1.39,4.76-3.53,0-2.54-1.56-3.85-8.36-5.99-11.48-3.53-14.51-8.04-14.51-13.37,0-9.02,8.45-14.84,17.63-14.84,9.84,0,16.81,5.41,17.47,14.35h-13.37Z" style="fill: #231815; stroke-width: 0px;"/>
    <path d="M295.58,520.22v-60.68h15.5v47.07h17.96v13.61h-33.46Z" style="fill: #231815; stroke-width: 0px;"/>
    <path d="M334.53,469.87v-10.33h13.61v10.33h-13.61ZM334.53,520.22v-45.51h13.61v45.51h-13.61Z" style="fill: #231815; stroke-width: 0px;"/>
    <path d="M354.7,520.22v-60.68h13.61v18.78c3.61-3.85,8.2-5.17,12.96-5.17,11.81,0,22.63,8.86,22.63,24.03,0,14.02-8.94,24.6-22.96,24.6-5.49,0-10.99-2.54-13.04-6.4h-.16v4.84h-13.04ZM390.29,497.42c0-6.07-4.67-11.56-11.23-11.56s-11.23,5.17-11.23,11.48c0,6.72,4.76,11.73,11.07,11.73s11.4-5.08,11.4-11.64Z" style="fill: #231815; stroke-width: 0px;"/>
    <path d="M419.24,501.6c.74,5.17,5.08,8.61,10.66,8.61,3.69,0,6.07-1.39,8.28-4.26h13.94c-4.35,9.92-12.63,15.74-22.22,15.74-13.12,0-24.11-10.58-24.11-24.11s10.5-24.44,23.86-24.44,24.03,10.74,24.03,24.85c0,1.31-.08,2.38-.33,3.61h-34.11ZM440.06,492.42c-1.07-4.67-5.17-7.79-10.41-7.79-4.92,0-9.18,2.95-10.25,7.79h20.66Z" style="fill: #231815; stroke-width: 0px;"/>
    <path d="M457.86,520.22v-45.51h12.79v4.84h.16c2.38-4.84,6.15-6.4,11.4-6.4v13.69c-8.12.08-10.74,3.12-10.74,8.28v25.09h-13.61Z" style="fill: #231815; stroke-width: 0px;"/>
    <path d="M495.41,501.6c.74,5.17,5.08,8.61,10.66,8.61,3.69,0,6.07-1.39,8.28-4.26h13.94c-4.35,9.92-12.63,15.74-22.22,15.74-13.12,0-24.11-10.58-24.11-24.11s10.5-24.44,23.86-24.44,24.03,10.74,24.03,24.85c0,1.31-.08,2.38-.33,3.61h-34.11ZM516.24,492.42c-1.07-4.67-5.17-7.79-10.41-7.79-4.92,0-9.18,2.95-10.25,7.79h20.66Z" style="fill: #231815; stroke-width: 0px;"/>
    <path d="M555.93,520.22v-60.68h20.67c7.54,0,13.53,1.31,17.79,3.69,8.61,4.92,14.02,14.27,14.02,26.65,0,20.01-11.81,30.34-30.75,30.34h-21.73ZM578.4,506.61c8.94,0,14.51-5.58,14.51-16.65s-5.49-16.81-14.43-16.81h-7.05v33.46h6.97Z" style="fill: #231815; stroke-width: 0px;"/>
    <path d="M624.73,501.6c.74,5.17,5.08,8.61,10.66,8.61,3.69,0,6.07-1.39,8.28-4.26h13.94c-4.35,9.92-12.63,15.74-22.22,15.74-13.12,0-24.11-10.58-24.11-24.11s10.5-24.44,23.86-24.44,24.03,10.74,24.03,24.85c0,1.31-.08,2.38-.33,3.61h-34.11ZM645.55,492.42c-1.07-4.67-5.17-7.79-10.41-7.79-4.92,0-9.18,2.95-10.25,7.79h20.66Z" style="fill: #231815; stroke-width: 0px;"/>
    <path d="M682.78,487.5c-.08-2.62-1.97-3.44-4.18-3.44s-3.94,1.31-3.94,3.03c0,2.46,2.21,3.69,8.53,5.33,10.82,2.87,14.35,7.22,14.35,13.86,0,9.51-8.2,15.5-18.53,15.5s-17.55-5.82-18.53-15.09h13.53c.41,2.87,2.46,4.18,5.17,4.18,2.38,0,4.76-1.39,4.76-3.53,0-2.54-1.56-3.85-8.36-5.99-11.48-3.53-14.51-8.04-14.51-13.37,0-9.02,8.45-14.84,17.63-14.84,9.84,0,16.81,5.41,17.47,14.35h-13.37Z" style="fill: #231815; stroke-width: 0px;"/>
    <path d="M701.07,469.87v-10.33h13.61v10.33h-13.61ZM701.07,520.22v-45.51h13.61v45.51h-13.61Z" style="fill: #231815; stroke-width: 0px;"/>
    <path d="M754.69,514.89c-2.05,4.35-7.13,6.81-12.71,6.81-13.28,0-22.88-10.25-22.88-23.94s9.76-24.52,22.88-24.52c5.9,0,10.41,2.21,12.63,5.74h.16v-4.26h13.61v40.67c0,6.15-.82,10.82-2.46,13.94-3.28,6.31-12.22,11.15-23.62,11.15-12.87,0-21.24-7.3-22.39-15.99h15.74c1.56,3.36,4.59,4.51,7.95,4.51,6.89,0,11.07-4.51,11.07-12.79v-1.31ZM754.78,497.67c0-6.64-4.51-11.73-11.15-11.73-6.07,0-10.91,5.08-10.91,11.32s4.35,11.73,10.91,11.73,11.15-4.76,11.15-11.32Z" style="fill: #231815; stroke-width: 0px;"/>
    <path d="M803.32,520.22v-25.26c0-6.15-2.13-9.02-7.13-9.02-5.49,0-7.79,3.03-7.79,9.18v25.09h-13.61v-45.51h12.71v4.84h.16c2.87-4.67,6.89-6.4,12.38-6.4,8.2,0,16.89,4.59,16.89,18.04v29.03h-13.61Z" style="fill: #231815; stroke-width: 0px;"/>
    <path d="M855.88,520.22v-4.92h-.16c-1.97,4.02-7.38,6.48-13.37,6.48-13.45,0-22.8-10.58-22.8-24.35s9.76-24.27,22.8-24.27c5.58,0,10.74,2.21,13.37,6.4h.16v-4.84h13.61v45.51h-13.61ZM855.88,497.42c0-6.4-5.17-11.56-11.56-11.56s-11.15,5.17-11.15,11.73,5,11.48,11.32,11.48,11.4-5.08,11.4-11.64Z" style="fill: #231815; stroke-width: 0px;"/>
    <path d="M874.41,520.22v-45.51h12.79v4.84h.16c2.38-4.84,6.15-6.4,11.4-6.4v13.69c-8.12.08-10.74,3.12-10.74,8.28v25.09h-13.61Z" style="fill: #231815; stroke-width: 0px;"/>
    <path d="M911.97,501.6c.74,5.17,5.08,8.61,10.66,8.61,3.69,0,6.07-1.39,8.28-4.26h13.94c-4.35,9.92-12.63,15.74-22.22,15.74-13.12,0-24.11-10.58-24.11-24.11s10.5-24.44,23.86-24.44,24.03,10.74,24.03,24.85c0,1.31-.08,2.38-.33,3.61h-34.11ZM932.8,492.42c-1.07-4.67-5.17-7.79-10.41-7.79-4.92,0-9.18,2.95-10.25,7.79h20.66Z" style="fill: #231815; stroke-width: 0px;"/>
  </g>
  <polygon points="95.9 459.53 106.65 473.72 129.56 473.72 106.76 503.92 73.13 459.53 53.59 459.53 98.23 519.72 115.28 519.72 140.94 484.96 140.94 520.22 155.12 520.22 155.12 459.53 95.9 459.53" style="fill: #000; stroke-width: 0px;"/>
</svg>